<svg xmlns="http://www.w3.org/2000/svg" width="24" height="24" fill="none" aria-hidden="true" class="h-6 w-6 text-gray-500 transition duration-75 group-hover:text-gray-900 dark:text-gray-400 dark:group-hover:text-white" data-testid="flowbite-sidebar-collapse-icon" viewBox="0 0 18 20"><path fill="#6B7280" fill-rule="evenodd" d="M1.8 2.8A2.4 2.4 0 0 1 4.2.4h9.6a2.4 2.4 0 0 1 2.4 2.4v14.4a1.2 1.2 0 0 1 0 2.4h-3.6a1.2 1.2 0 0 1-1.2-1.2V16a1.2 1.2 0 0 0-1.2-1.2H7.8A1.2 1.2 0 0 0 6.6 16v2.4a1.2 1.2 0 0 1-1.2 1.2H1.8a1.2 1.2 0 1 1 0-2.4zM5.4 4h2.4v2.4H5.4zm2.4 4.8H5.4v2.4h2.4zM10.2 4h2.4v2.4h-2.4zm2.4 4.8h-2.4v2.4h2.4z" clip-rule="evenodd"/></svg>