<svg width="20" height="21" viewBox="0 0 20 21" fill="none" xmlns="http://www.w3.org/2000/svg"><g id="paper-clip"><path id="Vector" d="M12.6434 6.33339L7.1551 11.8217C6.99591 11.9755 6.86894 12.1594 6.7816 12.3627C6.69425 12.5661 6.64827 12.7848 6.64635 13.0061C6.64442 13.2274 6.68659 13.4468 6.77039 13.6516C6.8542 13.8565 6.97795 14.0426 7.13444 14.199C7.29093 14.3555 7.47701 14.4793 7.68184 14.5631C7.88667 14.6469 8.10613 14.6891 8.32743 14.6871C8.54873 14.6852 8.76743 14.6392 8.97077 14.5519C9.17411 14.4645 9.35802 14.3376 9.51176 14.1784L14.8568 8.69006C15.464 8.06138 15.7999 7.21937 15.7923 6.34538C15.7847 5.4714 15.4342 4.63535 14.8162 4.01733C14.1981 3.3993 13.3621 3.04874 12.4881 3.04114C11.6141 3.03355 10.7721 3.36953 10.1434 3.97672L4.7976 9.46422C3.85984 10.402 3.33301 11.6739 3.33301 13.0001C3.33301 14.3263 3.85984 15.5981 4.7976 16.5359C5.73536 17.4737 7.00724 18.0005 8.33343 18.0005C9.65963 18.0005 10.9315 17.4737 11.8693 16.5359L17.0834 11.3334" stroke="#111928" stroke-width="2" stroke-linecap="round" stroke-linejoin="round"></path></g></svg>