<svg xmlns="http://www.w3.org/2000/svg" width="24" height="24" fill="none" aria-hidden="true" class="h-6 w-6 text-gray-500 transition duration-75 group-hover:text-gray-900 dark:text-gray-400 dark:group-hover:text-white" data-testid="flowbite-sidebar-collapse-icon" viewBox="0 0 24 24"><path fill="#6B7280" d="M2.4 6a2.4 2.4 0 0 1 2.4-2.4h8.4A2.4 2.4 0 0 1 15.6 6v4.8a2.4 2.4 0 0 1-2.4 2.4h-2.4l-3.6 3.6v-3.6H4.8a2.4 2.4 0 0 1-2.4-2.4z"/><path fill="#6B7280" d="M18 8.4v2.4a4.8 4.8 0 0 1-4.8 4.8h-1.406l-2.12 2.12c.337.18.72.28 1.126.28h2.4l3.6 3.6V18h2.4a2.4 2.4 0 0 0 2.4-2.4v-4.8a2.4 2.4 0 0 0-2.4-2.4z"/></svg>