<svg xmlns="http://www.w3.org/2000/svg" width="24" height="24" fill="none" aria-hidden="true" class="h-6 w-6 text-gray-500 transition duration-75 group-hover:text-gray-900 dark:text-gray-400 dark:group-hover:text-white" data-testid="flowbite-sidebar-collapse-icon" viewBox="0 0 24 24"><path fill="#6B7280" d="M.911 15.321A4.22 4.22 0 0 0 0 17.945v3.492c0 .388.315.703.703.703H4.97v-1.875c0-1.492.56-2.857 1.484-3.893A4.215 4.215 0 0 1 .91 15.321m22.178 0a4.215 4.215 0 0 1-5.542 1.051 5.83 5.83 0 0 1 1.484 3.893v1.875h4.266a.703.703 0 0 0 .703-.703v-3.492c0-.99-.34-1.902-.911-2.624m-7.326 1.325A4.57 4.57 0 0 1 12 18.625a4.57 4.57 0 0 1-3.763-1.98 4.45 4.45 0 0 0-1.862 3.62v2.578c0 .389.315.704.703.704h9.844a.703.703 0 0 0 .703-.704v-2.578a4.45 4.45 0 0 0-1.862-3.62"/><path fill="#6B7280" d="M12 17.219a3.164 3.164 0 1 0 0-6.329 3.164 3.164 0 0 0 0 6.328m-7.734-1.64a2.812 2.812 0 1 0 0-5.625 2.812 2.812 0 0 0 0 5.625m15.468 0a2.813 2.813 0 1 0 0-5.625 2.813 2.813 0 0 0 0 5.625M9.14 7.388a16 16 0 0 0 2.212 1.66.83.83 0 0 0 .858 0 16 16 0 0 0 2.212-1.66c1.566-1.41 2.36-2.777 2.36-4.063 0-2.916-2.986-4.286-5-2.576-2.015-1.71-5-.34-5 2.576 0 1.286.793 2.653 2.358 4.063"/></svg>