<svg xmlns="http://www.w3.org/2000/svg" width="24" height="24" fill="none" aria-hidden="true" class="h-6 w-6 text-gray-500 transition duration-75 group-hover:text-gray-900 dark:text-gray-400 dark:group-hover:text-white" data-testid="flowbite-sidebar-collapse-icon" viewBox="0 0 24 24"><path fill="#6B7280" d="M22.5 14.25v2.25A1.5 1.5 0 0 1 21 18H10.868a.375.375 0 0 1-.303-.595l5.773-7.936a.77.77 0 0 0-.129-1.06.75.75 0 0 0-1.066.151l-6.75 9.287a.38.38 0 0 1-.307.153H3a1.5 1.5 0 0 1-1.5-1.5v-2.144c0-.168 0-.335.012-.5a.375.375 0 0 1 .375-.356H4.5a.75.75 0 0 0 .75-.8.766.766 0 0 0-.775-.7H2.243a.375.375 0 0 1-.363-.469c1.125-4.11 4.655-7.23 8.955-7.714a.375.375 0 0 1 .415.375V6.75a.75.75 0 0 0 .8.75.766.766 0 0 0 .7-.775V4.188a.375.375 0 0 1 .415-.375 10.52 10.52 0 0 1 8.982 7.718.375.375 0 0 1-.364.469h-2.258a.766.766 0 0 0-.773.7.75.75 0 0 0 .75.8h2.617a.375.375 0 0 1 .375.362q.008.193.006.388"/></svg>