<svg xmlns="http://www.w3.org/2000/svg" width="24" height="24" fill="none" aria-hidden="true" class="h-7 w-7 text-gray-500 transition duration-75 group-hover:text-gray-900 dark:text-gray-400 dark:group-hover:text-white" data-testid="flowbite-sidebar-collapse-icon" viewBox="0 0 22 19"><path fill="#6B7280" d="M14.6 4.2a3.6 3.6 0 1 1-7.2 0 3.6 3.6 0 0 1 7.2 0m6 2.4a2.4 2.4 0 1 1-4.8 0 2.4 2.4 0 0 1 4.8 0M15.8 15a4.8 4.8 0 1 0-9.6 0v3.6h9.6zM6.2 6.6a2.4 2.4 0 1 1-4.8 0 2.4 2.4 0 0 1 4.8 0m12 12V15a7.2 7.2 0 0 0-.9-3.487A3.606 3.606 0 0 1 21.8 15v3.6zM4.7 11.513A7.2 7.2 0 0 0 3.8 15v3.6H.2V15a3.6 3.6 0 0 1 4.5-3.487"/></svg>