<svg xmlns="http://www.w3.org/2000/svg" width="20" height="20" fill="none" viewBox="0 0 20 20"><path fill="#4B5563" fill-rule="evenodd" d="M5.12 2.144a3.68 3.68 0 0 0 2.094-.867 3.68 3.68 0 0 1 4.771 0 3.68 3.68 0 0 0 2.094.867 3.68 3.68 0 0 1 3.375 3.375c.061.771.365 1.504.867 2.094a3.68 3.68 0 0 1 0 4.77 3.68 3.68 0 0 0-.867 2.095 3.68 3.68 0 0 1-3.375 3.374 3.68 3.68 0 0 0-2.094.868 3.68 3.68 0 0 1-4.77 0 3.68 3.68 0 0 0-2.095-.868 3.68 3.68 0 0 1-3.374-3.374 3.68 3.68 0 0 0-.868-2.094 3.68 3.68 0 0 1 0-4.771 3.68 3.68 0 0 0 .868-2.094A3.68 3.68 0 0 1 5.12 2.144m8.928 6.303a1.2 1.2 0 0 0-1.697-1.697L8.4 10.7 6.848 9.15a1.2 1.2 0 0 0-1.697 1.697l2.4 2.4a1.2 1.2 0 0 0 1.697 0z" clip-rule="evenodd"/></svg>