<svg xmlns="http://www.w3.org/2000/svg" width="24" height="24" fill="none" viewBox="0 0 24 24"><path fill="#6B7280" d="M19.53 20.963c0 .335-.274.61-.608.61H4.823a.61.61 0 0 1-.609-.61v-.248h13.124c.67 0 1.214-.545 1.214-1.215V3.214c0-.673-.544-1.214-1.214-1.214H4.214C3.544 2 3 2.545 3 3.214v17.754c0 1.003.82 1.823 1.823 1.823h14.099c1.003 0 1.823-.82 1.823-1.823V18.44H19.53zM6.446 8.41c.026-.33.15-.614.395-.845.262-.25.51-.511.768-.768.339-.33.76-.33 1.098 0q.314.307.622.622l.605.605c.352.356.352.772 0 1.124-.253.253-.502.51-.76.755-.068.064-.072.12-.038.201.168.408.412.764.687 1.103.553.678 1.175 1.283 1.922 1.75.159.1.334.172.502.262.085.047.146.03.214-.038.253-.262.51-.515.768-.768.335-.335.76-.335 1.098 0q.618.611 1.236 1.235c.343.348.34.768-.004 1.12-.232.236-.48.46-.7.708-.321.36-.725.476-1.184.45-.669-.038-1.287-.257-1.883-.549a10.3 10.3 0 0 1-3.402-2.66c-.7-.832-1.279-1.742-1.66-2.763-.194-.502-.322-1.008-.284-1.544"/><path fill="#6B7280" d="M21.191 8.869H19.57v3.565h1.622a.73.73 0 0 0 .73-.73V9.599a.73.73 0 0 0-.73-.73m-.001 4.741H19.57v3.565h1.622a.73.73 0 0 0 .73-.73V14.34a.73.73 0 0 0-.73-.73m-.001-9.482H19.57v3.565h1.622a.73.73 0 0 0 .73-.73V4.858a.73.73 0 0 0-.73-.73"/></svg>