<svg xmlns="http://www.w3.org/2000/svg" width="48" height="18" fill="none" viewBox="0 0 48 18"><path fill="#000" d="M18.003 3.619a1.53 1.53 0 0 1-1.116.466A1.59 1.59 0 0 1 15.28 2.48a1.52 1.52 0 0 1 .465-1.114 1.576 1.576 0 0 1 2.284 0 1.53 1.53 0 0 1 .466 1.114 1.56 1.56 0 0 1-.492 1.138m.14 13.84H15.62V5.829h2.516zm5.422.001h-2.516V.479h2.516zm12.138-9.983V5.829h2.516v11.629h-2.516v-1.671q-1.419 1.973-4.076 1.973a5.48 5.48 0 0 1-4.09-1.767q-1.702-1.767-1.702-4.35t1.692-4.353a5.47 5.47 0 0 1 4.09-1.767q2.666.003 4.086 1.953m-6.322 6.839a3.833 3.833 0 0 0 5.266 0 3.68 3.68 0 0 0 1.047-2.675 3.6 3.6 0 0 0-1.047-2.651 3.77 3.77 0 0 0-5.266 0 3.6 3.6 0 0 0-1.049 2.65 3.72 3.72 0 0 0 1.058 2.68zM43.663 5.83v1.953q.963-2.163 3.595-2.163v2.722a3.76 3.76 0 0 0-2.518.698q-1.077.767-1.077 2.558v5.861h-2.51V5.83z"/><path fill="url(#a)" d="M6.824.237a6.3 6.3 0 0 0-4.282 1.681A6.3 6.3 0 0 0 .543 6.056v.035c-.019.143-.019.29-.019.436V17.46h2.498v-5.922a6.302 6.302 0 0 0 9.772-3.01A6.28 6.28 0 0 0 9.697.93 6.3 6.3 0 0 0 6.824.237m0 10.087a3.8 3.8 0 0 1-2.684-1.11 3.8 3.8 0 0 1-1.118-2.678v-.018a3.79 3.79 0 0 1 2.354-3.501 3.81 3.81 0 0 1 4.14.829 3.795 3.795 0 0 1-2.692 6.478"/><defs><linearGradient id="a" x1="8.966" x2="2.907" y1=".336" y2="17.913" gradientUnits="userSpaceOnUse"><stop stop-color="#0FF"/><stop offset=".51" stop-color="#0065D5" stop-opacity=".81"/><stop offset=".99" stop-color="#0040BC"/></linearGradient></defs></svg>