<svg xmlns="http://www.w3.org/2000/svg" width="24" height="24" fill="none" aria-hidden="true" class="h-6 w-6 text-gray-500 transition duration-75 group-hover:text-gray-900 dark:text-gray-400 dark:group-hover:text-white" data-testid="flowbite-sidebar-collapse-icon" viewBox="0 0 25 25"><path fill="#6B7280" d="M20.76 12.552a7 7 0 0 0 0-.405l1.399-1.748a.75.75 0 0 0 .139-.662 10 10 0 0 0-1.02-2.46.75.75 0 0 0-.563-.369l-2.224-.247a8 8 0 0 0-.28-.282l-.263-2.229a.75.75 0 0 0-.37-.563 10 10 0 0 0-2.46-1.018.75.75 0 0 0-.662.14l-1.743 1.39h-.405L10.56 2.703a.75.75 0 0 0-.662-.138c-.861.23-1.689.572-2.46 1.02a.75.75 0 0 0-.369.562l-.247 2.228a9 9 0 0 0-.282.28l-2.23.257a.75.75 0 0 0-.562.37c-.446.77-.79 1.598-1.019 2.46a.75.75 0 0 0 .14.662l1.391 1.743v.405l-1.396 1.747a.75.75 0 0 0-.138.662c.23.862.572 1.69 1.02 2.461a.75.75 0 0 0 .562.369l2.224.247q.14.146.281.281l.26 2.23a.75.75 0 0 0 .37.562c.77.447 1.598.79 2.46 1.02a.75.75 0 0 0 .662-.14l1.743-1.392q.203.006.405 0L14.46 22a.75.75 0 0 0 .662.138 10 10 0 0 0 2.461-1.02.75.75 0 0 0 .369-.563l.247-2.223q.146-.14.281-.282l2.23-.262a.75.75 0 0 0 .562-.37c.447-.771.79-1.599 1.02-2.46a.75.75 0 0 0-.14-.662zm-8.25 3.547a3.75 3.75 0 1 1 0-7.5 3.75 3.75 0 0 1 0 7.5"/></svg>